<svg width="24" height="24" viewBox="0 0 24 24" fill="none" xmlns="http://www.w3.org/2000/svg">
<path d="M23.5474 10.9309L13.0688 0.452786C12.4657 -0.150684 11.4869 -0.150684 10.8831 0.452786L8.70714 2.62873L11.4674 5.38901C12.1089 5.17226 12.8444 5.31767 13.3557 5.82898C13.8695 6.34358 14.0139 7.08542 13.7919 7.72892L16.452 10.3892C17.0956 10.1675 17.8382 10.3109 18.3523 10.8258C19.0707 11.5439 19.0707 12.7078 18.3523 13.4264C17.6337 14.1451 16.4697 14.1451 15.7508 13.4264C15.2104 12.8855 15.0769 12.0919 15.3505 11.4262L12.8696 8.94533L12.8694 15.4738C13.0492 15.5627 13.2135 15.6802 13.3557 15.8216C14.0742 16.5398 14.0742 17.7038 13.3557 18.4229C12.6371 19.1412 11.4727 19.1412 10.7551 18.4229C10.0367 17.7038 10.0367 16.5398 10.7551 15.8217C10.9273 15.6495 11.1319 15.5131 11.3571 15.4204V8.83105C11.1315 8.73898 10.9268 8.6025 10.7551 8.42971C10.2108 7.88614 10.0799 7.08749 10.3588 6.41914L7.63783 3.69785L0.452813 10.8824C-0.150938 11.4864 -0.150938 12.4653 0.452813 13.0688L10.9316 23.5471C11.5349 24.1507 12.5135 24.1507 13.1175 23.5471L23.5473 13.1175C24.1509 12.5137 24.151 11.5343 23.5474 10.9309Z" fill="#DE4C36"/>
</svg>
