<svg width="24" height="24" viewBox="0 0 24 24" fill="none" xmlns="http://www.w3.org/2000/svg">
<path d="M12 0C5.37346 0 0 5.37252 0 12C0 17.3021 3.43837 21.8002 8.20639 23.3869C8.80609 23.498 9.02632 23.1266 9.02632 22.8096C9.02632 22.5235 9.01512 21.5782 9.01004 20.5755C5.67152 21.3014 4.96707 19.1596 4.96707 19.1596C4.42121 17.7725 3.6347 17.4038 3.6347 17.4038C2.54598 16.659 3.71676 16.6742 3.71676 16.6742C4.9218 16.7589 5.55632 17.9109 5.55632 17.9109C6.62659 19.7455 8.36356 19.215 9.04834 18.9085C9.15601 18.1328 9.46705 17.6035 9.81019 17.3039C7.14488 17.0003 4.34291 15.9714 4.34291 11.3733C4.34291 10.0633 4.81169 8.99272 5.57938 8.15237C5.45477 7.85007 5.04406 6.6296 5.69561 4.97667C5.69561 4.97667 6.70329 4.65414 8.99648 6.20674C9.95363 5.94078 10.9802 5.80751 12 5.80299C13.0199 5.80751 14.0472 5.94078 15.0062 6.20674C17.2967 4.65414 18.303 4.97667 18.303 4.97667C18.9561 6.6296 18.5452 7.85007 18.4206 8.15237C19.19 8.99272 19.6556 10.0632 19.6556 11.3733C19.6556 15.9823 16.8483 16.9972 14.1763 17.2943C14.6066 17.6667 14.9902 18.397 14.9902 19.5165C14.9902 21.1221 14.9762 22.4144 14.9762 22.8096C14.9762 23.129 15.1922 23.5032 15.8006 23.3853C20.566 21.7968 24 17.3003 24 12C24 5.37252 18.6273 0 12 0Z" fill="white"/>
<path d="M4.49438 17.0944C4.46803 17.1539 4.3741 17.1718 4.28874 17.131C4.20168 17.0918 4.15274 17.0105 4.18098 16.9507C4.20686 16.8893 4.30079 16.8722 4.38765 16.9134C4.4749 16.9524 4.52459 17.0345 4.49438 17.0944ZM5.08467 17.621C5.02744 17.6741 4.91554 17.6495 4.83959 17.5656C4.7611 17.4819 4.74642 17.3701 4.80449 17.3162C4.8635 17.2632 4.97201 17.288 5.05069 17.3717C5.12918 17.4563 5.14443 17.5675 5.08457 17.6211L5.08467 17.621ZM5.48964 18.2949C5.41604 18.346 5.29576 18.2981 5.22151 18.1914C5.148 18.0847 5.148 17.9567 5.22311 17.9055C5.29765 17.8542 5.41604 17.9003 5.49133 18.0062C5.56474 18.1147 5.56474 18.2427 5.48955 18.295L5.48964 18.2949ZM6.17442 19.0754C6.10863 19.1479 5.96859 19.1285 5.866 19.0295C5.76116 18.9327 5.73189 18.7954 5.79787 18.7228C5.8644 18.6502 6.00529 18.6706 6.10863 18.7688C6.21282 18.8653 6.24463 19.0037 6.17451 19.0754H6.17442ZM7.05947 19.3389C7.03058 19.4328 6.89562 19.4756 6.75972 19.4357C6.624 19.3945 6.53516 19.2844 6.56255 19.1895C6.59078 19.0949 6.72631 19.0504 6.86324 19.0931C6.99877 19.134 7.0878 19.2433 7.05956 19.3389H7.05947ZM8.06687 19.4506C8.07026 19.5496 7.95497 19.6317 7.81229 19.6335C7.66877 19.6366 7.55272 19.5565 7.55122 19.4592C7.55122 19.3592 7.66387 19.2779 7.8073 19.2756C7.94998 19.2727 8.06687 19.3523 8.06687 19.4506ZM9.05639 19.4127C9.07352 19.5093 8.97432 19.6084 8.83268 19.6348C8.69339 19.6602 8.56445 19.6006 8.54667 19.5049C8.52935 19.4059 8.63043 19.3068 8.76944 19.2811C8.91136 19.2565 9.03832 19.3145 9.05639 19.4127Z" fill="white"/>
</svg>
