<svg width="24" height="24" viewBox="0 0 24 24" fill="none" xmlns="http://www.w3.org/2000/svg">
<path d="M10.9172 0.256046C11.5729 -0.084579 12.4271 -0.0861176 13.0823 0.256046C16.3786 1.94627 19.676 3.63383 22.9717 5.32508C23.5916 5.64194 24.0062 6.26797 23.9999 6.91615V17.0852C24.0045 17.7602 23.5489 18.4012 22.8949 18.7108C19.6095 20.3917 16.3257 22.0747 13.0408 23.7556C12.3714 24.1029 11.5001 24.0761 10.8517 23.7004C9.8667 23.1822 8.88002 22.6666 7.89494 22.149C7.69365 22.0401 7.46674 21.9534 7.3246 21.7763C7.45025 21.6226 7.6749 21.6035 7.85745 21.5364C8.26861 21.4177 8.64623 21.2273 9.02395 21.0425C9.11946 20.9832 9.23607 21.0059 9.32763 21.059C10.1699 21.4972 11.0048 21.9482 11.8499 22.3822C12.0301 22.4767 12.2127 22.3513 12.3668 22.2733C15.5909 20.6198 18.8189 18.9725 22.0424 17.3184C22.1618 17.2663 22.2279 17.1512 22.2182 17.0325C22.2204 13.678 22.2187 10.3228 22.2193 6.96829C22.2329 6.83358 22.147 6.70972 22.0128 6.65459C18.7387 4.98138 15.4663 3.3056 12.1928 1.63197C12.1361 1.59658 12.0689 1.5776 12.0001 1.57751C11.9313 1.57742 11.864 1.59622 11.8072 1.63145C8.53367 3.3056 5.26185 4.98292 1.98833 6.65604C1.85457 6.71126 1.7648 6.83306 1.78072 6.96829C1.78129 10.3228 1.78072 13.678 1.78072 17.033C1.77505 17.0909 1.78907 17.1491 1.8209 17.1995C1.85273 17.25 1.90084 17.2904 1.95875 17.3153C2.8323 17.7649 3.70699 18.2112 4.58111 18.6592C5.07355 18.8997 5.67818 19.0427 6.22074 18.8584C6.69953 18.7025 7.03514 18.2592 7.026 17.7979C7.03052 14.4629 7.02374 11.1274 7.02939 7.79297C7.01743 7.64492 7.17219 7.5226 7.33081 7.53654C7.75054 7.53397 8.17084 7.53141 8.59056 7.53756C8.76576 7.53397 8.88633 7.69339 8.86467 7.84254C8.86297 11.1986 8.86919 14.5548 8.86184 17.9109C8.86297 18.8053 8.45803 19.7785 7.54633 20.2162C6.42316 20.7442 5.03493 20.6322 3.92533 20.1259C2.96474 19.6908 2.04804 19.1774 1.1045 18.7113C0.448821 18.4033 -0.00453443 17.7597 8.10727e-05 17.0852V6.91615C-0.00679508 6.25456 0.42433 5.61715 1.06353 5.30491C4.34845 3.62264 7.6328 1.93909 10.9172 0.256046Z" fill="#8CC84B"/>
<path d="M13.7829 7.30018C15.2156 7.21649 16.7494 7.2506 18.0386 7.89108C19.0368 8.38188 19.5902 9.41197 19.6078 10.4183C19.5799 10.554 19.4235 10.6289 19.2807 10.6196C18.8651 10.6191 18.4493 10.6247 18.0336 10.617C17.8573 10.6232 17.7548 10.4756 17.7327 10.3342C17.6132 9.85268 17.3239 9.37581 16.8245 9.14357C16.0578 8.79525 15.1689 8.81277 14.3329 8.82004C13.7226 8.84944 13.0664 8.8974 12.5494 9.22306C12.1524 9.46975 12.0319 9.96774 12.1735 10.3688C12.3071 10.6568 12.6734 10.7497 12.9731 10.8353C14.6997 11.2451 16.5293 11.2043 18.223 11.7436C18.9241 11.9634 19.6101 12.3908 19.8501 13.057C20.164 13.9499 20.0264 15.0172 19.3263 15.734C18.7586 16.3239 17.9318 16.6449 17.1071 16.8193C16.0101 17.0413 14.8715 17.0469 13.7574 16.9484C12.7098 16.84 11.6196 16.5902 10.8108 15.9425C10.1193 15.3976 9.78148 14.5485 9.81502 13.7291C9.82302 13.5907 9.97486 13.4942 10.121 13.5055C10.5396 13.5025 10.9582 13.5014 11.3768 13.5061C11.5439 13.4952 11.6679 13.6263 11.6765 13.7693C11.7537 14.2281 11.9437 14.7096 12.3845 14.9816C13.2353 15.4796 14.3028 15.4455 15.2769 15.4595C16.084 15.427 16.99 15.4171 17.6486 14.9331C17.996 14.657 18.099 14.1951 18.0051 13.7977C17.9034 13.4622 17.5166 13.3059 17.1845 13.2036C15.48 12.7144 13.63 12.8919 11.942 12.3386C11.2567 12.1188 10.5941 11.7033 10.3308 11.0645C9.96347 10.1603 10.1318 9.04194 10.9052 8.34932C11.6593 7.66037 12.7479 7.39505 13.7829 7.30009V7.30018Z" fill="#8CC84B"/>
</svg>
