<svg width="26" height="24" viewBox="0 0 26 24" fill="none" xmlns="http://www.w3.org/2000/svg">
<path d="M13 14.1159C14.2351 14.1159 15.2364 13.1686 15.2364 12.0001C15.2364 10.8315 14.2351 9.88416 13 9.88416C11.7649 9.88416 10.7637 10.8315 10.7637 12.0001C10.7637 13.1686 11.7649 14.1159 13 14.1159Z" fill="#61DAFB"/>
<path d="M13 16.335C19.6274 16.335 25 14.3941 25 12C25 9.60583 19.6274 7.66498 13 7.66498C6.37258 7.66498 1 9.60583 1 12C1 14.3941 6.37258 16.335 13 16.335Z" stroke="#61DAFB"/>
<path d="M9.03202 14.1675C12.3457 19.5978 16.8085 23.0296 19 21.8325C21.1914 20.6354 20.2817 15.2628 16.968 9.8325C13.6542 4.40216 9.19144 0.970424 6.99999 2.1675C4.80854 3.36458 5.71831 8.73716 9.03202 14.1675Z" stroke="#61DAFB"/>
<path d="M9.03201 9.83251C5.71831 15.2628 4.80853 20.6354 6.99998 21.8325C9.19143 23.0296 13.6542 19.5979 16.968 14.1675C20.2817 8.73718 21.1914 3.3646 19 2.16752C16.8085 0.97044 12.3457 4.40217 9.03201 9.83251Z" stroke="#61DAFB"/>
</svg>
