<svg width="24" height="24" viewBox="0 0 24 24" fill="none" xmlns="http://www.w3.org/2000/svg">
<path d="M12.0001 4.79999C8.79996 4.79999 6.80001 6.39959 5.99991 9.59848C7.20006 7.99888 8.60009 7.39926 10.2 7.79901C11.1129 8.02709 11.7654 8.68944 12.4877 9.42231C13.6642 10.6162 15.0258 11.9979 18.0002 11.9979C21.2 11.9979 23.2003 10.3983 24.0001 7.19908C22.8002 8.79868 21.4002 9.3986 19.8 8.99886C18.8873 8.77077 18.2349 8.10842 17.5125 7.37555C16.3361 6.1817 14.9742 4.79999 12.0001 4.79999ZM5.99991 11.9979C2.80011 11.9979 0.799861 13.5975 6.10352e-05 16.7967C1.19991 15.1971 2.59994 14.5971 4.20014 14.9972C5.11278 15.2256 5.76522 15.8876 6.48759 16.6202C7.66404 17.814 9.02595 19.1961 12.0001 19.1961C15.2002 19.1961 17.2001 17.5965 18.0002 14.3973C16.8001 15.9969 15.4 16.5968 13.8001 16.1967C12.8872 15.969 12.2347 15.3063 11.5124 14.5737C10.3359 13.3799 8.97433 11.9979 5.99991 11.9979Z" fill="#06B6D4"/>
</svg>
