<svg width="24" height="24" viewBox="0 0 24 24" fill="none" xmlns="http://www.w3.org/2000/svg">
<path d="M0 0H24V24H0V0Z" fill="#017ACB"/>
<path d="M11.5238 8.88752H12.675V10.875H9.56252V19.7175L9.48002 19.74C9.36752 19.77 7.88627 19.77 7.56752 19.7363L7.31252 19.7138V10.875H4.20001V8.88752L5.18626 8.87627C5.72626 8.86877 7.11377 8.86877 8.26877 8.87627C9.42377 8.88377 10.8863 8.88752 11.5238 8.88752ZM20.31 18.78C19.8525 19.2638 19.3613 19.5338 18.5438 19.755C18.1875 19.8525 18.1275 19.8563 17.325 19.8525C16.5225 19.8488 16.4588 19.8488 16.0688 19.7475C15.06 19.4888 14.2463 18.9825 13.6913 18.2663C13.5338 18.0638 13.275 17.6438 13.275 17.5913C13.275 17.5763 13.3125 17.5425 13.3613 17.52C13.41 17.4975 13.5113 17.4338 13.5938 17.385C13.6763 17.3363 13.8263 17.2463 13.9275 17.1938C14.0288 17.1413 14.3213 16.9688 14.5763 16.815C14.8313 16.6613 15.0638 16.5375 15.09 16.5375C15.1163 16.5375 15.165 16.59 15.2025 16.6538C15.4275 17.0325 15.9525 17.5163 16.3238 17.6813C16.5525 17.7788 17.0588 17.8875 17.3025 17.8875C17.5275 17.8875 17.94 17.79 18.1613 17.6888C18.3975 17.58 18.5175 17.4713 18.66 17.2538C18.7575 17.1 18.7688 17.0588 18.765 16.7663C18.765 16.4963 18.75 16.4213 18.675 16.2975C18.465 15.9525 18.18 15.7725 17.025 15.2625C15.8325 14.7338 15.2963 14.4188 14.8613 13.995C14.5388 13.68 14.475 13.5938 14.2725 13.2C14.01 12.6938 13.9763 12.5288 13.9725 11.775C13.9688 11.2463 13.98 11.0738 14.0363 10.8938C14.115 10.6238 14.37 10.1025 14.4863 9.97127C14.7263 9.69002 14.8125 9.60377 14.9813 9.46502C15.4913 9.04502 16.2863 8.76752 17.0475 8.74127C17.1338 8.74127 17.4188 8.75627 17.685 8.77502C18.45 8.83877 18.9713 9.02627 19.4738 9.42752C19.8525 9.72752 20.4263 10.4325 20.37 10.5263C20.3325 10.5825 18.8363 11.58 18.7388 11.61C18.6788 11.6288 18.6375 11.6063 18.555 11.5088C18.045 10.8975 17.8388 10.7663 17.3438 10.7363C16.9913 10.7138 16.8038 10.755 16.5675 10.9125C16.32 11.0775 16.2 11.3288 16.2 11.6775C16.2038 12.1875 16.3988 12.4275 17.1188 12.7838C17.5838 13.0125 17.9813 13.2 18.0113 13.2C18.0563 13.2 19.02 13.68 19.2713 13.83C20.4413 14.5163 20.9175 15.2213 21.0413 16.4363C21.1313 17.3513 20.8725 18.1875 20.31 18.78Z" fill="white"/>
</svg>
